<svg xmlns="http://www.w3.org/2000/svg" width="14.019" height="13.626" viewBox="0 0 14.019 13.626">
  <g id="in" transform="translate(-9.944 -9.65)">
    <g id="Group_38" data-name="Group 38">
      <rect id="Rectangle_4" data-name="Rectangle 4" width="2.894" height="8.95" transform="translate(10.222 14.326)" fill="#2c323d"/>
      <g id="in-2" data-name="in">
        <path id="Path_16" data-name="Path 16" d="M1106.018,78.408a1.725,1.725,0,1,0-1.711-1.725A1.718,1.718,0,0,0,1106.018,78.408Z" transform="translate(-1094.363 -65.307)" fill="#2c323d"/>
        <path id="Path_17" data-name="Path 17" d="M1109.946,82.187c0-1.315.6-2.1,1.762-2.1,1.066,0,1.576.751,1.576,2.1v4.46l2.88.047v-5.52c0-2.5-1.42-3.716-3.4-3.716A3.258,3.258,0,0,0,1109.946,79V77.744h-2.777v8.95h2.777Z" transform="translate(-1092.202 -63.418)" fill="#2c323d"/>
      </g>
    </g>
  </g>
</svg>
