<svg xmlns="http://www.w3.org/2000/svg" xmlns:xlink="http://www.w3.org/1999/xlink" width="26.898" height="27.011" viewBox="0 0 26.898 27.011">
  <defs>
    <linearGradient id="linear-gradient" x1="0.5" x2="0.5" y2="1" gradientUnits="objectBoundingBox">
      <stop offset="0" stop-color="#ffe479"/>
      <stop offset="1" stop-color="#f5a623"/>
    </linearGradient>
  </defs>
  <path id="phone" d="M152.3,1811.317a1.31,1.31,0,0,1-.4,1.145l-3.787,3.777a2.134,2.134,0,0,1-.669.486,2.751,2.751,0,0,1-.811.258q-.029,0-.171.014t-.37.014a13.088,13.088,0,0,1-1.751-.186,13.247,13.247,0,0,1-2.961-.916,24.838,24.838,0,0,1-3.972-2.189,29.654,29.654,0,0,1-4.727-4.006,31.323,31.323,0,0,1-3.3-3.777,26.935,26.935,0,0,1-2.107-3.334,17.992,17.992,0,0,1-1.2-2.775,14.777,14.777,0,0,1-.541-2.146,7.133,7.133,0,0,1-.114-1.416q.029-.515.028-.572a2.793,2.793,0,0,1,.256-.816,2.148,2.148,0,0,1,.484-.672l3.787-3.805a1.251,1.251,0,0,1,.911-.4,1.058,1.058,0,0,1,.655.214,1.987,1.987,0,0,1,.484.529l3.047,5.808a1.4,1.4,0,0,1,.142,1,1.787,1.787,0,0,1-.484.916l-1.4,1.4a.478.478,0,0,0-.1.186.709.709,0,0,0-.043.215,5.183,5.183,0,0,0,.513,1.374,12.626,12.626,0,0,0,1.054,1.674,18.567,18.567,0,0,0,2.022,2.275,18.874,18.874,0,0,0,2.278,2.046,13.118,13.118,0,0,0,1.666,1.073,4.411,4.411,0,0,0,1.025.415l.356.072a.671.671,0,0,0,.185-.043.474.474,0,0,0,.185-.1l1.623-1.659a1.739,1.739,0,0,1,1.2-.458,1.481,1.481,0,0,1,.769.172h.028l5.5,3.262A1.439,1.439,0,0,1,152.3,1811.317Z" transform="translate(-125.417 -1790)" fill="url(#linear-gradient)"/>
</svg>
