<svg xmlns="http://www.w3.org/2000/svg" width="14.902" height="12.111" viewBox="0 0 14.902 12.111">
  <g id="twitter" transform="translate(-9.503 -10.898)">
    <g id="Group_33" data-name="Group 33">
      <path id="Path_14" data-name="Path 14" d="M1141.766,86.4a8.641,8.641,0,0,0,4.687,1.374c6.777,0,8.883-4.794,8.69-9.094a5.433,5.433,0,0,0,1.525-1.583,5.76,5.76,0,0,1-1.694.488,2.972,2.972,0,0,0,1.281-1.7,6.092,6.092,0,0,1-1.939.742,3.06,3.06,0,0,0-2.233-.965,3.164,3.164,0,0,0-2.944,3.905,8.912,8.912,0,0,1-6.336-3.346,3.062,3.062,0,0,0,.946,4.083,3.051,3.051,0,0,1-1.385-.383,3.062,3.062,0,0,0,2.452,3.037,3.032,3.032,0,0,1-1.38.051,3.136,3.136,0,0,0,2.986,2.019A6.525,6.525,0,0,1,1141.766,86.4Z" transform="translate(-1132.263 -64.769)" fill="#2c323d"/>
    </g>
  </g>
</svg>
